<svg viewBox="0 0 64 64" xmlns="http://www.w3.org/2000/svg"><g fill="#222"><path d="m26.66 31.86a11.52 11.52 0 1 1 11.52-11.52 11.53 11.53 0 0 1 -11.52 11.52zm0-20a8.52 8.52 0 1 0 8.52 8.51 8.52 8.52 0 0 0 -8.52-8.54zm0 43.31a24.55 24.55 0 0 1 -16.12-5.59 1.49 1.49 0 0 1 -.43-1.4c2-9.58 7.91-14.86 16.55-14.86a1.5 1.5 0 1 1 0 3c-6.91 0-11.54 4-13.42 11.6a22.64 22.64 0 0 0 13.42 4.25 1.5 1.5 0 0 1 0 3z"/><path d="m26.66 55.17a1.5 1.5 0 1 1 0-3 23.21 23.21 0 0 0 9.41-1.94 1.5 1.5 0 1 1 1.21 2.77 26.16 26.16 0 0 1 -10.62 2.17zm15.08-5.17a1.51 1.51 0 0 1 -1.47-1.19c-1.73-8.16-6.44-12.48-13.61-12.48a1.5 1.5 0 0 1 0-3c8.64 0 14.51 5.28 16.55 14.86a1.51 1.51 0 0 1 -1.16 1.81 1.63 1.63 0 0 1 -.31 0zm5.02-11.74a1.5 1.5 0 0 1 -1.5-1.5v-11.34a1.5 1.5 0 0 1 3 0v11.34a1.51 1.51 0 0 1 -1.5 1.5z"/><path d="m46.76 32.59h-5.67a1.5 1.5 0 1 1 0-3h5.67a1.5 1.5 0 0 1 0 3zm5.67 0h-1.75a1.5 1.5 0 1 1 0-3h1.75a1.5 1.5 0 1 1 0 3z"/></g></svg>