<svg viewBox="0 0 512 512" xmlns="http://www.w3.org/2000/svg"><circle cx="256" cy="256" fill="#b96a66" r="256"/><path d="m123 164.57a151.43 151.43 0 0 0 28.34 182.34l1.13 79 85.4 85.41c6 .41 12 .64 18.1.64 133.85 0 243.69-102.73 255-233.64l-148.1-148.11a151.47 151.47 0 0 0 -239.87 34.36z" fill="#a05555"/><path d="m388.59 310a151.45 151.45 0 0 1 -168.9 74.33l-67.19 41.67-1.13-79a151.4 151.4 0 1 1 237.22-37z" fill="#9a3f3c"/><path d="m152.58 285.88 87.53-94.2 42.34 42.82 78.49-42.82-86.1 94.2-39.49-39.96z" fill="#fff"/></svg>