<svg height="512" viewBox="0 0 512 512" width="512" xmlns="http://www.w3.org/2000/svg"><path d="m240 408a71.991 71.991 0 0 0 71.927-69.1l-2.789-.507a16 16 0 0 1 -13.138-15.746v-50.647h-112v50.647a16 16 0 0 1 -13.138 15.742l-2.789.507a71.991 71.991 0 0 0 71.927 69.104z" fill="#fac7b7"/><path d="m412.88 357.251-100.953-18.351a71.991 71.991 0 0 1 -71.927 69.1 71.991 71.991 0 0 1 -71.927-69.1l-100.953 18.351a72 72 0 0 0 -59.12 70.838v83.911h464v-83.911a72 72 0 0 0 -59.12-70.838z" fill="#e56161"/><path d="m412.88 357.251-14.845-2.7c-62.561 85.73-163.781 141.449-278.035 141.449a343.421 343.421 0 0 1 -112-18.673v34.673h464v-83.911a72 72 0 0 0 -59.12-70.838z" fill="#d65858"/><path d="m168 104 28.031 18.687a79.265 79.265 0 0 0 87.938 0l28.031-18.687s34.581 5.769 45.036 31.978c6.215-67.727-47.146-127.978-117.036-127.978-69.89 0-123.251 60.251-117.036 127.978 10.455-26.209 45.036-31.978 45.036-31.978z" fill="#525252"/><path d="m351.226 168 3.878-18.929a119.819 119.819 0 0 0 1.932-13.093c-10.455-26.209-45.036-31.978-45.036-31.978l-28.031 18.687a79.265 79.265 0 0 1 -87.938 0l-28.031-18.687s-34.581 5.769-45.036 31.978a119.819 119.819 0 0 0 1.932 13.093l3.878 18.929a19.342 19.342 0 0 0 -18.765 24.034l4.56 18.24a28.682 28.682 0 0 0 27.825 21.726 102.175 102.175 0 0 0 97.606 72 102.175 102.175 0 0 0 97.606-72 28.682 28.682 0 0 0 27.825-21.726l4.56-18.24a19.342 19.342 0 0 0 -18.765-24.034z" fill="#ffe7de"/><circle cx="200" cy="48" fill="#848484" r="16"/><circle cx="240" cy="64" fill="#848484" r="12"/><circle cx="64" cy="388" fill="#f29c9c" r="16"/><circle cx="104" cy="404" fill="#f29c9c" r="12"/><circle cx="176" cy="152" fill="#fff5f2" r="16"/><circle cx="216" cy="168" fill="#fff5f2" r="12"/><path d="m178.151 283.124a101.909 101.909 0 0 0 61.849 20.876 102.175 102.175 0 0 0 97.606-72 28.682 28.682 0 0 0 27.825-21.726l4.56-18.24a19.342 19.342 0 0 0 -18.765-24.034l1.639-8h-.865c0-14.365-2.872-25.857-7.461-35.062a220.3 220.3 0 0 1 -166.388 158.186z" fill="#f9d8cd"/><path d="m304.892 27.5a136.124 136.124 0 0 1 -114.1 91.693l5.237 3.491a79.265 79.265 0 0 0 87.938 0l28.033-18.684s34.581 5.769 45.036 31.978a117.537 117.537 0 0 0 -52.144-108.478z" fill="#3f3f3f"/><path d="m407.917 339.917h48a0 0 0 0 1 0 0v160a24 24 0 0 1 -24 24 24 24 0 0 1 -24-24v-160a0 0 0 0 1 0 0z" fill="#ffd740" transform="matrix(.70710678 -.70710678 .70710678 .70710678 -178.906 431.917)"/><circle cx="360" cy="352" fill="#f5f5f5" r="88"/><circle cx="360" cy="352" fill="#4baee0" r="56"/><path d="m392 312a63.7 63.7 0 0 1 7.659.466 56 56 0 1 0 -66.476 88.7 63.95 63.95 0 0 1 58.817-89.166z" fill="#0277bd"/><path d="m498.982 465.347a95.534 95.534 0 0 1 -50.982 14.653c-.662 0-1.319-.024-1.978-.037l17.008 17.008a24 24 0 0 0 33.941 0 23.989 23.989 0 0 0 2.011-31.624z" fill="#ffc400"/><circle cx="372" cy="372" fill="#e2e2e2" r="12"/><circle cx="392" cy="344" fill="#e2e2e2" r="8"/><path d="m72 440a8 8 0 0 0 -8 8v56a8 8 0 0 0 16 0v-56a8 8 0 0 0 -8-8z"/><path d="m408 480a8 8 0 0 0 -8 8v16a8 8 0 0 0 16 0v-16a8 8 0 0 0 -8-8z"/><path d="m251.8 398.915a64.641 64.641 0 0 1 -11.8 1.085 64 64 0 0 1 -63.356-54.97 23.985 23.985 0 0 0 15.356-22.383v-21.657a109.574 109.574 0 0 0 47.99 11.01h.01c3.71 0 7.43-.19 11.06-.55a8 8 0 0 0 -.79-15.96 7.322 7.322 0 0 0 -.81.04c-3.1.31-6.28.47-9.46.47a94.2 94.2 0 0 1 -89.97-66.36l-1.73-5.6-5.91-.04a20.692 20.692 0 0 1 -20.06-15.66l-4.56-18.25a11.591 11.591 0 0 1 -.35-2.79 11.428 11.428 0 0 1 3.28-7.93 11.218 11.218 0 0 1 8.07-3.37h9.8l-5.83-28.53q-1.046-5.085-1.6-10.232c7.653-16.337 27.712-22.8 35.255-24.695l25.2 16.8a87.276 87.276 0 0 0 96.816 0l25.2-16.8c7.561 1.9 27.608 8.365 35.257 24.7-.376 3.426-.906 6.841-1.6 10.22l-5.82 28.48-.01.06h9.8a11.218 11.218 0 0 1 8.07 3.37 11.242 11.242 0 0 1 2.93 10.72l-4.56 18.24a20.637 20.637 0 0 1 -20.068 15.667 8 8 0 0 0 0 16 36.651 36.651 0 0 0 35.58-27.79l4.56-18.24a27.3 27.3 0 0 0 -7.04-25.81 27.326 27.326 0 0 0 -10.02-6.48l2.25-11.01a126.485 126.485 0 0 0 2.59-25.43 123.781 123.781 0 0 0 -9.68-48.08 125.247 125.247 0 0 0 -115.85-77.16h-.01a124.942 124.942 0 0 0 -47.18 9.14 8 8 0 1 0 6.01 14.83 109.671 109.671 0 0 1 149.918 88.13c-15.311-12.468-34.3-15.8-35.424-15.992l-3.12-.52-30.661 20.444a71.283 71.283 0 0 1 -79.065 0l-30.662-20.443-3.12.52c-1.123.187-20.117 3.525-35.429 16a108.467 108.467 0 0 1 20.973-52.089 8 8 0 0 0 -12.8-9.59l-.02.02a125.986 125.986 0 0 0 -18.37 34.9 124.156 124.156 0 0 0 -6.57 39.89c0 3.818.186 7.654.538 11.487 0 .038.006.076.01.114a128.243 128.243 0 0 0 2.042 13.839l2.25 11a27.291 27.291 0 0 0 -17.06 32.3l4.56 18.23a36.677 36.677 0 0 0 29.67 27.31 110.05 110.05 0 0 0 37.92 50.82c.526.391 1.067.759 1.6 1.139v31.168a8 8 0 0 1 -6.569 7.871l-103.742 18.862a79.962 79.962 0 0 0 -65.689 78.709v75.911a8 8 0 0 0 16 0v-75.911a63.969 63.969 0 0 1 52.551-62.967l92.417-16.8a79.976 79.976 0 0 0 79.032 67.678 80.7 80.7 0 0 0 14.724-1.355 8 8 0 1 0 -2.928-15.73z"/><path d="m168.18 40.48a7.9 7.9 0 0 0 4.89-1.68l.02-.02a8 8 0 0 0 -9.82-12.63 8 8 0 0 0 4.91 14.33z"/><path d="m502.627 457.373-58.74-58.741a95.96 95.96 0 1 0 -48.075 42.434l61.561 61.561a32 32 0 0 0 45.254-45.254zm-142.627-25.373a80 80 0 1 1 80-80 80.091 80.091 0 0 1 -80 80zm131.314 59.313a16.019 16.019 0 0 1 -22.628 0l-57.886-57.89a96.752 96.752 0 0 0 23.972-21.283l56.546 56.546a16.018 16.018 0 0 1 -.004 22.627z"/><path d="m424 352a63.95 63.95 0 0 0 -64-64 64.432 64.432 0 0 0 -13.6 1.45 8 8 0 0 0 1.69 15.82 8.114 8.114 0 0 0 1.7-.18 48.437 48.437 0 0 1 10.21-1.09 48 48 0 1 1 -48 48 48.437 48.437 0 0 1 1.09-10.21 8.019 8.019 0 0 0 -6.13-9.52 8 8 0 0 0 -9.51 6.13 64.643 64.643 0 0 0 -1.45 13.6 64 64 0 1 0 128 0z"/><path d="m320.4 320.4a8 8 0 1 0 -5.65-2.34 7.949 7.949 0 0 0 5.65 2.34z"/></svg>