<svg enable-background="new 0 0 512 512" height="512" viewBox="0 0 512 512" width="512" xmlns="http://www.w3.org/2000/svg"><g clip-rule="evenodd" fill-rule="evenodd"><path d="m181.129 323.823-43.798 43.796 1.812 26.6 27.751 2.933 43.77-43.767-.317-29.246z" fill="#6d80aa"/><path d="m143.334 391.667 6.201 42.563-60.114 60.091c-13.545 13.573-35.717 13.573-49.262 0-13.545-13.544-13.545-35.716 0-49.26l60.104-60.101z" fill="#fdb440"/><path d="m123.614 361.609-23.351 23.35 49.262 49.26 23.351-23.322c2.128-2.128 2.128-5.636 0-7.764l-5.982-5.981-29.563-29.533-5.982-6.01c-2.127-2.128-5.607-2.128-7.735 0z" fill="#f8f2f0"/><path d="m132.96 417.656-60.104 60.101c-10.64 10.64-26.63 12.94-39.542 6.844 1.668 3.537 3.94 6.815 6.844 9.72 13.545 13.573 35.717 13.573 49.262 0l60.104-60.101z" fill="#fe9900"/><path d="m154.73 395.858-21.77 21.797 16.564 16.564 23.351-23.322c2.128-2.128 2.128-5.636 0-7.764l-5.982-5.981-10.583-10.582c2.128 2.128 2.128 5.608 0 7.736z" fill="#eee1dc"/><path d="m390.572 70.995h-153.394c-15.213 7.793-29.477 18.03-42.188 30.77-65.654 65.651-65.654 172.108 0 237.759s172.115 65.651 237.769 0 65.654-172.108 0-237.759c-12.739-12.74-27.003-22.977-42.187-30.77z" fill="#f8f2f0"/><path d="m393.477 114.504h-159.232c-32.209 24.213-53.058 62.747-53.058 106.141 0 73.272 59.414 132.654 132.688 132.654s132.659-59.382 132.659-132.654c.001-43.394-20.849-81.928-53.057-106.141z" fill="#22a6fe"/><path d="m267.316 213.685c-4.515 1.237-9.116 2.416-13.717 3.71l49.463 49.001c8.397 5.435 13.2 5.435 21.597 0l49.463-49.001c-4.601-1.294-9.202-2.473-13.689-3.71-10.468-2.847-13.229-16.334-15.357-20.705-21.913-16.794-40.462-16.851-62.404 0-2.156 4.371-4.917 17.858-15.356 20.705z" fill="#fed1a3"/><path d="m234.245 121.607c0 25.22 20.936 56.104 48.428 71.374 3.652 2.013 7.419 3.767 11.244 5.205 14.436 5.349 25.479 5.349 39.887 0 3.854-1.438 7.621-3.192 11.273-5.205 27.492-15.27 48.399-46.154 48.399-71.374v-7.103-17.254c-118.942-63.696-33.215-75.083-159.232 0v17.254 7.103z" fill="#ffe5c1"/><path d="m300.129 8.881c-28.413 5.377-54.438 26.111-62.951 62.114-1.898 7.994-2.933 16.736-2.933 26.255 32.237-2.243 27.435-26.859 49.665-21.136 17.197 4.429 23.581 6.672 29.966 6.672 6.384 0 12.74-2.243 29.937-6.672 22.259-5.723 17.456 18.893 49.665 21.136 0-9.518-1.007-18.26-2.905-26.255-8.512-36.003-34.538-56.737-62.979-62.114-4.515-.834-9.116-1.323-13.717-1.38-4.603.057-9.204.546-13.748 1.38z" fill="#6d80aa"/><path d="m253.599 217.395c-25.738 7.247-50.93 17.599-50.93 54.609v21.021c23.696 36.291 64.647 60.274 111.206 60.274s87.51-23.983 111.177-60.274v-21.021c0-37.01-25.163-47.362-50.93-54.609l-49.463 29.015c-8.397 5.435-13.2 5.435-21.597 0z" fill="#fd4755"/><path d="m371.333 114.504c-.288 23.782-18.98 52.423-44.114 68.268-1.409.891-2.847 1.754-4.285 2.559-3.652 2.013-7.419 3.767-11.273 5.205-9.921 3.681-18.232 4.831-27.147 3.422 3.048 1.61 6.212 3.048 9.404 4.227 14.436 5.349 25.479 5.349 39.887 0 3.854-1.438 7.621-3.192 11.273-5.205 27.492-15.27 48.399-46.154 48.399-71.374v-7.103-17.253c-10.64-.748-17.255-3.94-22.115-7.649v17.254 7.074c0 .201-.029.402-.029.575z" fill="#fed1a3"/><path d="m369.982 71.225c.661 4.256 1.093 8.713 1.265 13.343.058 1.668.115 3.336.115 5.032 4.86 3.71 11.474 6.902 22.115 7.649 0-9.518-1.007-18.26-2.905-26.255-8.512-36.003-34.538-56.737-62.979-62.114h-.029c19.038 9.979 34.624 28.124 40.865 54.465.575 2.473 1.093 5.004 1.495 7.649.029.087.029.145.058.231z" fill="#49679b"/><path d="m360.578 230.795c23.466 7.275 44.718 18.778 44.718 52.797v33.156c7.477-7.074 14.091-15.04 19.757-23.724v-21.021c0-37.01-25.163-47.362-50.93-54.609l-19.757 11.589c2.071.576 4.17 1.18 6.212 1.812z" fill="#e41e2b"/><path d="m392.211 132.908c10.151 26.657 15.874 56.593 15.874 88.225 0 3.767-.086 7.505-.259 11.244 10.295 8.138 17.226 20.216 17.226 39.627v21.021c13.574-20.791 21.482-45.665 21.482-72.38 0-43.394-20.849-81.928-53.058-106.141v7.103c.001 3.652-.431 7.448-1.265 11.301z" fill="#0182fc"/><path d="m393.477 114.504c32.209 24.213 53.058 62.747 53.058 106.141 0 26.715-7.908 51.589-21.482 72.38-5.665 8.684-12.28 16.65-19.757 23.724-7.563 7.218-15.989 13.516-25.077 18.778-10.755 19.928-24.243 37.269-39.772 51.129 33.79-5.378 66.258-21.107 92.312-47.132 65.654-65.651 65.654-172.108 0-237.759-12.74-12.739-27.004-22.977-42.188-30.77 1.898 7.994 2.905 16.736 2.905 26.255v17.254z" fill="#eee1dc"/><path d="m282.673 192.98c-1.38 2.818-3.02 9.461-6.844 14.58-.201.23 30.311 16.046 53.921 7.275 3.796-1.179 4.084-1.955 5.521 1.438 2.905 6.873 11.244 9.691 19.095 12.71l19.757-11.589c-4.601-1.294-9.202-2.473-13.689-3.71-10.468-2.847-13.229-16.334-15.357-20.705-3.652 2.013-7.419 3.767-11.273 5.205-14.408 5.349-25.451 5.349-39.887 0-3.192-1.179-6.355-2.617-9.404-4.227-.632-.315-1.236-.631-1.84-.977z" fill="#ffbc85"/><path d="m199.247 343.636-42.935 42.934 10.583 10.582 43.769-43.768c-3.911-3.048-7.736-6.297-11.417-9.748z" fill="#49679b"/></g><path d="m173.687 220.644c0 77.281 62.888 140.154 140.188 140.154 77.284 0 140.16-62.873 140.16-140.154 0-22.415-5.138-43.838-15.272-63.675-9.088-17.789-22.107-33.671-37.786-46.142v-13.577c0-29.415-9.359-54.348-27.064-72.104-15.807-15.851-37.086-24.78-59.918-25.144-.079-.002-.159-.002-.238 0-22.845.363-44.132 9.292-59.942 25.144-17.71 17.754-27.07 42.687-27.07 72.104v13.577c-15.679 12.472-28.699 28.353-37.786 46.142-10.134 19.837-15.272 41.26-15.272 63.675zm243.865 70.039c-22.525 33.233-60.593 55.115-103.677 55.115-43.097 0-81.177-21.885-103.706-55.122v-18.672c0-30.367 19.373-39.764 42.415-46.509l46.547 27.305c5.361 3.447 10.045 5.17 14.73 5.17s9.368-1.723 14.729-5.17l46.553-27.308c23.036 6.746 42.409 16.14 42.409 46.512zm-145.097-70.922c7.684-3.438 11.743-10.653 14.195-16.453 1.543.68 3.095 1.329 4.662 1.91 8.016 2.97 15.291 4.454 22.561 4.454 7.271 0 14.538-1.484 22.537-4.454 1.57-.581 3.124-1.231 4.67-1.912 2.449 5.81 6.506 13.014 14.195 16.45l-34.41 20.185c-.095.055-.188.112-.28.172-5.906 3.824-7.539 3.825-13.448 0-.092-.06-.185-.117-.28-.172zm166.58.883c0 14.547-2.504 28.519-7.088 41.518-4.254-34.367-31.03-44.996-55.8-51.983-.061-.017-.121-.036-.183-.052-2.803-.789-5.581-1.534-8.295-2.26-1.765-.473-3.521-.941-5.266-1.419-3.972-1.08-6.391-6.067-8.059-10.333 23.81-15.434 42.346-41.595 45.973-66.016 24.769 23.548 38.718 55.814 38.718 90.545zm-125.16-205.643c32.859.578 68.046 23.837 71.776 73.427-7.649-2.09-11.583-6.105-15.692-10.3-5.747-5.866-12.898-13.165-28.018-9.277-4.173 1.074-7.711 2.021-10.77 2.839-8.947 2.395-13.438 3.596-17.297 3.596-3.872 0-8.393-1.208-17.398-3.616-3.043-.813-6.559-1.753-10.698-2.818-15.098-3.888-22.245 3.407-27.987 9.27-4.113 4.198-8.053 8.22-15.722 10.311 3.733-49.593 38.934-72.853 71.806-73.432zm-72.13 88.861c14.423-2.655 21.449-9.82 26.762-15.244 5.105-5.212 6.827-6.964 13.532-5.241 4.087 1.053 7.56 1.981 10.564 2.784 9.949 2.66 15.429 4.125 21.272 4.125 5.831 0 11.281-1.458 21.174-4.105 3.019-.808 6.513-1.742 10.631-2.803 6.728-1.731 8.451.029 13.565 5.248 5.31 5.42 12.33 12.58 26.732 15.235v17.747c0 26.239-25.597 58.737-54.783 69.547-12.784 4.746-21.857 4.745-34.67-.001-29.182-10.818-54.779-43.316-54.779-69.546zm-14.34 26.237c3.629 24.417 22.168 50.58 45.983 66.017-1.672 4.26-4.095 9.256-8.046 10.334-1.734.474-3.486.941-5.248 1.412-2.706.723-5.475 1.466-8.269 2.251-.139.034-.276.075-.412.117-24.729 6.987-51.391 17.649-55.637 51.929-4.585-12.998-7.089-26.968-7.089-41.515 0-34.731 13.949-66.998 38.718-90.545z"/><path d="m438.063 96.46c-3.798-3.798-7.655-7.33-11.464-10.497-3.185-2.649-7.913-2.216-10.562.97-2.649 3.185-2.214 7.913.97 10.562 3.458 2.877 6.974 6.098 10.45 9.573 30.336 30.335 47.043 70.671 47.043 113.576s-16.707 83.241-47.043 113.576c-62.629 62.627-164.534 62.627-227.163 0-30.336-30.335-47.043-70.671-47.043-113.576s16.707-83.241 47.043-113.576c2.919-2.918 5.65-5.462 8.349-7.775 3.146-2.695 3.51-7.43.814-10.575-2.696-3.146-7.43-3.509-10.576-.813-2.993 2.565-6 5.364-9.194 8.557-33.17 33.169-51.437 77.271-51.437 124.184 0 37.301 11.56 72.819 32.967 102.484l-33.871 33.87-.693-.693c-2.446-2.445-5.703-3.792-9.171-3.792s-6.725 1.347-9.173 3.794l-23.189 23.202c-.053.05-.109.094-.161.146s-.097.109-.147.163l-17.57 17.581c-2.928 2.93-2.926 7.679.003 10.606 2.93 2.928 7.678 2.926 10.607-.003l12.42-12.428 38.655 38.653-54.815 54.794c-5.133 5.144-11.996 7.977-19.322 7.977s-14.188-2.833-19.328-7.983c-5.134-5.134-7.962-11.998-7.962-19.326 0-7.329 2.828-14.192 7.962-19.326l19.555-19.555c2.929-2.93 2.929-7.678 0-10.607-2.928-2.928-7.677-2.928-10.606 0l-19.555 19.555c-7.967 7.967-12.355 18.598-12.355 29.934 0 11.335 4.388 21.966 12.35 29.928 7.967 7.983 18.6 12.38 29.939 12.38s21.972-4.397 29.934-12.375l83.455-83.424c2.446-2.445 3.793-5.708 3.793-9.186 0-3.479-1.347-6.741-3.793-9.187l-.678-.678 33.886-33.885c30.494 21.936 66.488 32.916 102.487 32.916 44.975 0 89.949-17.118 124.188-51.355 33.17-33.169 51.437-77.271 51.437-124.184s-18.266-91.013-51.436-124.182zm-288.527 327.164-38.66-38.658 16.606-16.618 38.669 38.667zm17.358-37.079-18.941-18.94 32.612-32.611c2.903 3.373 5.942 6.655 9.122 9.834 3.184 3.183 6.461 6.218 9.821 9.105z"/></svg>