<svg height="16" viewBox="0 0 16 16" width="16" xmlns="http://www.w3.org/2000/svg"><path d="m13.634766.10742188a.47043489.47043489 0 0 0 -.462891.4765625v1.41210942h-1.412109a.47043489.47043489 0 0 0 -.046875 0 .47043489.47043489 0 0 0 .046875.9394531h1.412109v1.4121093a.47043489.47043489 0 1 0 .939453 0v-1.4121093h1.41211a.47043489.47043489 0 1 0 0-.9394531h-1.41211v-1.41210942a.47043489.47043489 0 0 0 -.476562-.4765625zm-7.0488285 1.89453122c-1.8129325 0-3.2929516 1.4800688-3.2929687 3.2929688.0000171 1.813 1.4800362 3.2929687 3.2929687 3.2929687s3.2929516-1.4799687 3.2929687-3.2929687c-.0000172-1.8129-1.4800362-3.2929688-3.2929687-3.2929688zm0 .9414063c1.3045027 0 2.3515501 1.0470625 2.3515625 2.3515625-.0000124 1.3046-1.0470598 2.3515625-2.3515625 2.3515625s-2.3515501-1.0469625-2.3515625-2.3515625c.0000124-1.3045 1.0470598-2.3515625 2.3515625-2.3515625zm0 6.5839844c-3.6013518 0-6.5859375 2.4796312-6.5859375 5.6445312h.94140625c0-2.5681 2.47041675-4.703125 5.64453125-4.703125 3.1741141 0 5.6445315 2.135025 5.6445315 4.703125h.939453c0-3.1649-2.982633-5.6445312-6.5839845-5.6445312z"/></svg>